<svg width="29" height="29" viewBox="0 0 29 29" fill="none" xmlns="http://www.w3.org/2000/svg">
<path d="M6.22852 24.934C6.49014 25.9109 7.12665 26.7452 7.9998 27.2556C8.87529 27.7686 9.91715 27.9176 10.9014 27.6705C11.1979 27.6035 11.4848 27.4993 11.7553 27.3605" stroke="white" stroke-width="2" stroke-miterlimit="10" stroke-linecap="round" stroke-linejoin="round"/>
<path d="M2.83731 13.7661L2.94775 13.5146C3.31208 12.7854 3.867 12.1684 4.55364 11.7291C5.57277 11.2888 6.45267 10.5792 7.09878 9.67646C7.43462 8.91152 7.77551 8.13511 8.17847 7.39827C10.1378 3.86235 14.8995 2.91441 18.499 4.49479L18.5886 4.53413C22.1881 6.11451 24.7129 10.2615 23.4519 14.1041C23.1826 14.8982 22.7751 15.6454 22.4951 16.4362C22.2683 17.5248 22.3378 18.6543 22.6962 19.7069C22.843 20.5057 22.7658 21.3296 22.4731 22.0872L22.3677 22.3272C21.9513 23.3406 21.1775 24.1659 20.1931 24.6466C18.9292 25.1708 17.518 25.2186 16.2215 24.7811C12.3781 23.5632 8.67591 21.9378 5.1782 19.9325C3.98536 19.2693 3.06942 18.2009 2.59619 16.9207C2.29351 15.8745 2.37915 14.7542 2.83731 13.7661V13.7661Z" stroke="white" stroke-width="2" stroke-miterlimit="10" stroke-linecap="round" stroke-linejoin="round"/>
</svg>
