<svg width="21" height="22" viewBox="0 0 21 22" fill="none" xmlns="http://www.w3.org/2000/svg">
<path d="M7.635 19.7723V16.7153C7.63539 16.5289 7.67252 16.3444 7.74426 16.1723C7.816 16.0002 7.92094 15.8439 8.05309 15.7124C8.18524 15.5809 8.34201 15.4768 8.51444 15.4059C8.68686 15.335 8.87157 15.2988 9.058 15.2993H11.932C12.3091 15.299 12.6711 15.4478 12.939 15.7133C13.0711 15.8442 13.176 16 13.2475 16.1716C13.3191 16.3432 13.356 16.5273 13.356 16.7133V19.7713C13.3549 19.9322 13.3858 20.0917 13.4469 20.2406C13.508 20.3894 13.5981 20.5246 13.712 20.6383C13.8264 20.7526 13.9622 20.8432 14.1117 20.905C14.2611 20.9667 14.4213 20.9985 14.583 20.9983H16.544C17.4585 21.0009 18.3368 20.6414 18.987 19.9983C19.3074 19.6817 19.5619 19.3047 19.7357 18.8892C19.9096 18.4736 19.9994 18.0278 20 17.5773V8.86631C19.9988 8.50294 19.9175 8.1443 19.762 7.81591C19.6064 7.48751 19.3804 7.19743 19.1 6.96631L12.434 1.67531C11.8702 1.22616 11.1675 0.987543 10.4467 1.0005C9.726 1.01346 9.03231 1.27718 8.485 1.74631L1.967 6.96431C1.67411 7.18909 1.43524 7.47659 1.26791 7.8057C1.10059 8.13482 1.00905 8.49721 1 8.86631L1 17.5663C1.00144 18.0187 1.09199 18.4663 1.26646 18.8837C1.44093 19.301 1.69592 19.6799 2.01685 19.9987C2.33778 20.3175 2.71838 20.57 3.13689 20.7417C3.55541 20.9133 4.00364 21.0009 4.456 20.9993H6.372C6.69711 21.0006 7.00954 20.8733 7.24111 20.6451C7.47268 20.4169 7.60457 20.1064 7.608 19.7813L7.635 19.7723Z" stroke="white" stroke-width="2"/>
</svg>
